<?xml version="1.0" encoding="UTF-8"?>
<svg version="1.1" xmlns="http://www.w3.org/2000/svg" width="2084" height="392">
<path d="M0 0 C36.7141936 -0.11326357 73.42833598 -0.20267272 110.14266874 -0.25532665 C114.48679573 -0.26157945 118.83092236 -0.26805113 123.17504883 -0.2746582 C124.4721894 -0.27662553 124.4721894 -0.27662553 125.79553483 -0.2786326 C139.75880003 -0.30033099 153.72196128 -0.33972146 167.68516501 -0.38576398 C182.0352874 -0.43268423 196.38535571 -0.46032812 210.73555166 -0.47044247 C219.57533844 -0.47726954 228.41483128 -0.49875377 237.25452749 -0.53958233 C243.33367703 -0.56621346 249.41267681 -0.57395549 255.49188032 -0.56750689 C258.98826793 -0.56433525 262.48414556 -0.56885216 265.98044014 -0.59602737 C298.95643706 -0.81427813 325.43341728 6.643352 351 28 C351.63808594 28.51433594 352.27617187 29.02867188 352.93359375 29.55859375 C368.90221341 42.68202506 379.64302874 61.63734866 386.3125 80.9375 C386.65812988 81.91831543 386.65812988 81.91831543 387.01074219 82.91894531 C392.37068753 99.40805763 392.42941868 115.91407076 392.34819686 133.06786764 C392.3350761 136.55294423 392.33963712 140.03800741 392.34190369 143.52310181 C392.34346643 149.54152533 392.33416277 155.55985025 392.31719017 161.57824898 C392.29266772 170.27951304 392.28498146 178.98073008 392.2812262 187.68202495 C392.27468233 201.8039127 392.25477761 215.92574806 392.22631836 230.04760742 C392.19872406 243.75463603 392.17751687 257.46165034 392.16479492 271.16870117 C392.16400675 272.01552861 392.16321858 272.86235605 392.16240653 273.73484493 C392.15849103 277.98370436 392.1547 282.2325639 392.15097082 286.4814235 C392.11993928 321.65432888 392.06467124 356.82713722 392 392 C370.55 392 349.1 392 327 392 C326.98541748 382.42967773 326.97083496 372.85935547 326.95581055 362.99902344 C326.90702722 332.35892516 326.84361092 301.71887274 326.77101372 271.078822 C326.75974589 266.31752222 326.74860738 261.55622215 326.73754883 256.79492188 C326.7342433 255.37312022 326.7342433 255.37312022 326.730871 253.92259529 C326.69552257 238.58564332 326.67064458 223.24869139 326.64965298 207.91171381 C326.62787137 192.16829056 326.59479854 176.42492005 326.55129844 160.68154168 C326.52482238 150.97123312 326.50709723 141.26099026 326.50065396 131.55064741 C326.49538769 124.88706362 326.47912919 118.22356241 326.45433434 111.56002292 C326.44036173 107.71859061 326.4311326 103.877306 326.43499184 100.03584671 C326.43905739 95.86226311 326.4199226 91.6890957 326.39872742 87.51556396 C326.40357499 86.3131965 326.40842257 85.11082904 326.41341704 83.87202621 C326.27223442 66.97747628 320.73295421 51.70299082 308.8671875 39.4765625 C297.23073027 29.42545367 284.24065541 25.53170334 269.00935364 25.60127258 C267.85247675 25.59462576 266.69559986 25.58797893 265.5036661 25.58113068 C261.65445244 25.56258288 257.80555187 25.56510051 253.95629883 25.56762695 C251.18622576 25.56025726 248.41617604 25.54840665 245.64611816 25.53674316 C239.69637791 25.51402247 233.74669595 25.50208338 227.79691505 25.49761391 C219.19470758 25.49113612 210.59260519 25.46817022 201.99044021 25.44127061 C188.03164618 25.39806412 174.0728566 25.36806237 160.11401367 25.34643555 C146.55995503 25.32540742 133.00593267 25.29811636 119.4519043 25.26245117 C118.6154485 25.26025235 117.7789927 25.25805352 116.91718975 25.25578807 C112.72064244 25.24471796 108.52409545 25.23352523 104.32754862 25.22227156 C69.55172857 25.12917341 34.77589468 25.05835411 0 25 C0 16.75 0 8.5 0 0 Z " fill="#1B2037" transform="translate(0,0)"/>
<path d="M0 0 C60.39 0 120.78 0 183 0 C183 12.54 183 25.08 183 38 C136.14 38 89.28 38 41 38 C41.33 68.03 41.66 98.06 42 129 C44.97 126.36 47.94 123.72 51 121 C64.15546594 111.88205532 78.37320039 107.80967738 94.41381836 107.88647461 C95.2243869 107.88632858 96.03495544 107.88618256 96.87008667 107.8860321 C99.52670039 107.88672406 102.1832424 107.89448261 104.83984375 107.90234375 C106.69071921 107.90421048 108.54159518 107.90563318 110.39247131 107.90663147 C115.24709453 107.91043656 120.1016875 107.92024958 124.95629883 107.93133545 C130.79007594 107.94339858 136.6238632 107.94796138 142.45764923 107.95378876 C151.30512048 107.9634625 160.15252544 107.98263309 169 108 C169 120.87 169 133.74 169 147 C164.29955444 147.01401855 164.29955444 147.01401855 159.50415039 147.02832031 C149.13445119 147.06213297 138.76495009 147.11770602 128.39540958 147.18390274 C122.11019429 147.223361 115.82511876 147.25555781 109.53979492 147.27099609 C103.47068006 147.2861732 97.40194947 147.32063842 91.33300591 147.36830902 C89.02108544 147.38311177 86.70911011 147.39104038 84.39714241 147.39188385 C81.15114813 147.39425848 77.90621154 147.42137983 74.66040039 147.45410156 C73.71093033 147.4490712 72.76146027 147.44404083 71.78321838 147.43885803 C63.81621405 147.5625868 56.85538069 149.84251845 50.75 155.125 C32.35987899 174.12812505 41.4537669 200.13528644 41 226 C89.18 226 137.36 226 187 226 C187 238.54 187 251.08 187 264 C125.29 264 63.58 264 0 264 C0 176.88 0 89.76 0 0 Z " fill="#1B2037" transform="translate(570,62)"/>
<path d="M0 0 C6.45423584 5.54547943 11.38057531 11.88519477 16 19 C16.38929688 18.39414063 16.77859375 17.78828125 17.1796875 17.1640625 C28.56832017 0.10735458 43.19255576 -9.88263501 63.25 -14.3125 C82.80626808 -17.26601263 102.54860761 -14.39334123 119 -3 C131.93964946 6.859842 143.27512267 20.55327356 146 37 C146.27770623 41.55721658 146.25287364 46.10356092 146.22705078 50.66796875 C146.2264858 52.03858939 146.22680492 53.40921064 146.22793579 54.77983093 C146.22850692 58.47970621 146.21679173 62.17945039 146.20278788 65.87929535 C146.19024028 69.75367051 146.18910685 73.62804906 146.18673706 77.50244141 C146.18053409 84.82976743 146.16413937 92.1570334 146.14403808 99.48433304 C146.12164216 107.8301796 146.11067638 116.17602911 146.10064721 124.52189827 C146.07977202 141.68130616 146.04311066 158.84063138 146 176 C134.12 176 122.24 176 110 176 C109.9906543 172.21039795 109.98130859 168.4207959 109.97167969 164.51635742 C109.93786572 151.97537055 109.88249151 139.43455589 109.81609726 126.89370251 C109.7763781 119.29249429 109.74394962 111.69138853 109.72900391 104.09008789 C109.71595025 97.46066034 109.68889165 90.83145891 109.64538693 84.20215875 C109.62285491 80.69567704 109.6070843 77.18947335 109.60811615 73.68291283 C109.60900779 69.75737176 109.57861578 65.83239376 109.54589844 61.90698242 C109.5509288 60.75898666 109.55595917 59.61099091 109.56114197 58.4282074 C109.43208778 48.37571286 107.28073151 39.08287822 100.06005859 31.70727539 C91.06301646 24.25096873 81.16674501 24.24145925 70.05688477 24.40307617 C67.43852477 24.43748653 64.82353406 24.42366379 62.20507812 24.40429688 C51.81897699 24.41380377 41.44506722 24.75364437 33.36709785 32.29021835 C26.75845826 40.5554136 25.11962052 48.9892332 25.22705078 59.29589844 C25.21642105 60.56561493 25.20579132 61.83533142 25.19483948 63.14352417 C25.16668807 66.58516004 25.17465933 70.02582772 25.18970728 73.46750927 C25.1991586 77.07904428 25.17457157 80.69035416 25.15377808 84.30181885 C25.11958453 91.12262364 25.11547833 97.94309249 25.12250316 104.76396585 C25.1290195 112.53686942 25.10150521 120.30954003 25.07130075 128.0823741 C25.00998629 144.05501061 24.99535096 160.02722577 25 176 C12.79 176 0.58 176 -12 176 C-12.0093457 172.21039795 -12.01869141 168.4207959 -12.02832031 164.51635742 C-12.06213428 151.97537055 -12.11750849 139.43455589 -12.18390274 126.89370251 C-12.2236219 119.29249429 -12.25605038 111.69138853 -12.27099609 104.09008789 C-12.28404975 97.46066034 -12.31110835 90.83145891 -12.35461307 84.20215875 C-12.37714509 80.69567704 -12.3929157 77.18947335 -12.39188385 73.68291283 C-12.39099221 69.75737176 -12.42138422 65.83239376 -12.45410156 61.90698242 C-12.4490712 60.75898666 -12.44404083 59.61099091 -12.43885803 58.4282074 C-12.55850312 49.10862119 -14.33829475 39.47234732 -21.09643555 32.55297852 C-30.8941691 24.55972686 -40.36972768 24.09885461 -52.50073242 24.32763672 C-55.19375394 24.37511025 -57.88283344 24.36868939 -60.57617188 24.35546875 C-62.31512741 24.36661815 -64.05406656 24.38083533 -65.79296875 24.3984375 C-66.5838237 24.39661469 -67.37467865 24.39479187 -68.1894989 24.39291382 C-75.80882543 24.58368293 -82.06257282 27.25005826 -88 32 C-88.66 32 -89.32 32 -90 32 C-90.27670941 32.56856531 -90.55341883 33.13713062 -90.83851337 33.72292519 C-91.59906089 35.21396568 -92.40736894 36.68180392 -93.26587963 38.11867332 C-97.26656903 45.14473418 -97.71777689 51.08847855 -97.65942383 59.06884766 C-97.67514938 60.97298431 -97.67514938 60.97298431 -97.69119263 62.91558838 C-97.71913159 66.36548188 -97.71690482 69.81474926 -97.70889878 73.26472139 C-97.70575613 76.88159973 -97.73085916 80.4982847 -97.75285339 84.11508179 C-97.79018388 90.95006611 -97.80243483 97.78485153 -97.8054778 104.61992776 C-97.81018063 112.40728927 -97.84314303 120.194453 -97.87837565 127.98172688 C-97.95016575 143.98784249 -97.98307443 159.99371805 -98 176 C-110.21 176 -122.42 176 -135 176 C-135 113.96 -135 51.92 -135 -12 C-122.79 -12 -110.58 -12 -98 -12 C-97.505 -3.09 -97.505 -3.09 -97 6 C-96.113125 5.01 -95.22625 4.02 -94.3125 3 C-69.2635701 -21.9477221 -27.11887357 -20.26778972 0 0 Z " fill="#1B2037" transform="translate(1610,150)"/>
<path d="M0 0 C14.284752 2.94312675 28.47690301 6.17939206 42.6640625 9.55859375 C44.95121414 10.10136953 47.23842167 10.64390982 49.52568054 11.18623352 C55.63025732 12.63427415 61.73415924 14.08513822 67.83786392 15.53684998 C78.0806833 17.97277922 88.32420915 20.40573717 98.56785774 22.83817673 C101.16509678 23.45492972 103.76231283 24.07177864 106.35949516 24.68877029 C123.0407608 28.65121618 139.72860236 32.58389647 156.42698669 36.47357368 C159.53844399 37.198694 162.64959269 37.92512212 165.76062012 38.65208435 C167.26123804 39.0027243 167.26123804 39.0027243 168.79217148 39.36044788 C170.76906454 39.822419 172.74594513 40.28444346 174.72281265 40.74652386 C179.44209093 41.84892189 184.1621898 42.94752469 188.88433838 44.03756714 C248.21624814 57.73872059 248.21624814 57.73872059 269 76 C269.80566406 76.66257812 270.61132812 77.32515625 271.44140625 78.0078125 C295.93471487 98.78304454 309.06323919 131.32062437 311.72265625 162.80078125 C313.3432634 185.64978873 308.48905287 207.44157248 303.77227092 229.63508797 C302.93407466 233.58731954 302.10529031 237.54152542 301.27528381 241.4954834 C299.88478022 248.11294723 298.48794729 254.72904787 297.08666992 261.34423828 C295.28727967 269.83901361 293.49854065 278.33599581 291.71304989 286.83370209 C290.17382694 294.15895565 288.62985799 301.48320755 287.08507848 308.80729103 C286.5897564 311.15666429 286.0950767 313.50617215 285.60047722 315.85569763 C284.82591878 319.53360251 284.04840778 323.21087132 283.26856422 326.88765907 C282.98260099 328.23795455 282.69757883 329.5884497 282.41355133 330.93915367 C282.02685005 332.77724086 281.63638778 334.61453563 281.24571228 336.45178223 C281.02800139 337.48109108 280.81029051 338.51039993 280.58598232 339.57089996 C280 342 280 342 279 344 C256.89 344 234.78 344 212 344 C218.07566064 313.94174453 224.24887663 283.91059675 230.6015625 253.91015625 C230.84601058 252.75547954 230.84601058 252.75547954 231.095397 251.57747602 C233.77436797 238.92349196 236.45861883 226.27062902 239.14378357 213.61795807 C241.19182147 203.96740061 243.23895108 194.31665325 245.28229654 184.66510099 C246.23252883 180.17738321 247.18492568 175.69013239 248.13908124 171.20324719 C248.72619458 168.44010957 249.31139489 165.67656934 249.8960762 162.91291618 C250.29379955 161.03581001 250.6938265 159.15919239 251.09393311 157.28259277 C255.5525078 136.17263921 254.68326292 117.70749341 243 99 C231.83175989 83.4528456 215.10749663 79.00993985 197.359375 74.859375 C195.67931044 74.46050929 193.99940358 74.06097888 192.31964111 73.6608429 C187.75385295 72.57531398 183.18584172 71.49942415 178.61737061 70.42525101 C173.77873965 69.28577834 168.94225907 68.13724557 164.10546875 66.98999023 C151.40668759 63.98039825 138.70357847 60.98926616 126 58 C123.72371137 57.46422503 121.44742559 56.92843797 119.17114258 56.39263916 C112.22357587 54.75740334 105.27587278 53.12274758 98.328125 51.48828125 C97.18337456 51.21895908 96.03862411 50.94963692 94.85918427 50.67215347 C83.6181877 48.02766173 72.37693049 45.38431621 61.13357162 42.74988365 C40.72029914 37.9665201 20.31798126 33.17583057 0 28 C0 18.76 0 9.52 0 0 Z " fill="#1B2037" transform="translate(0,48)"/>
<path d="M0 0 C0.96842331 -0.00807175 1.93684662 -0.01614349 2.93461609 -0.02445984 C4.98284141 -0.03824634 7.03108919 -0.04899261 9.0793457 -0.05688477 C11.13963732 -0.06833173 13.19990103 -0.08866587 15.26000977 -0.1184082 C38.80757823 -0.45748107 60.20735062 2.7990116 78.4921875 18.8359375 C95.9332833 36.33393737 98.26015635 57.40693043 98.23274177 80.85124493 C98.22438275 83.60465788 98.20790814 86.35799497 98.19090056 89.11136627 C98.17191763 92.71208459 98.17036655 96.31281357 98.16682434 99.91357422 C98.15756644 106.70589476 98.13303918 113.49806734 98.10277587 120.29032326 C98.06903484 128.03417771 98.05269676 135.7780399 98.03768957 143.52194977 C98.00648257 159.42749342 97.95155074 175.3328337 97.88671875 191.23828125 C86.66671875 191.23828125 75.44671875 191.23828125 63.88671875 191.23828125 C63.55671875 185.29828125 63.22671875 179.35828125 62.88671875 173.23828125 C61.07171875 174.57890625 59.25671875 175.91953125 57.38671875 177.30078125 C33.21175909 194.35816138 1.15085056 198.43327488 -27.59765625 193.921875 C-42.64104012 190.99677258 -57.55494596 185.90819937 -67.11328125 173.23828125 C-76.2572209 157.93402909 -78.9959802 140.75156217 -75.42578125 123.1328125 C-71.111905 108.08816909 -62.03793948 97.76350013 -48.8046875 89.859375 C-28.64025553 79.01206674 -4.25767883 77.04135162 18.2109375 77.140625 C19.43835159 77.14203995 20.66576569 77.1434549 21.93037415 77.14491272 C25.81168154 77.15046489 29.69292909 77.1630083 33.57421875 77.17578125 C36.22200437 77.18080244 38.8697909 77.18536426 41.51757812 77.18945312 C47.97397841 77.20041861 54.4303443 77.2171084 60.88671875 77.23828125 C60.76123257 75.04644327 60.62660428 72.85512782 60.48828125 70.6640625 C60.41432129 69.44372314 60.34036133 68.22338379 60.26416016 66.96606445 C59.26323274 57.08044946 56.22088737 48.15415128 48.88671875 41.23828125 C40.70218768 35.13277898 33.03408265 32.92589147 22.98828125 32.9375 C22.15388519 32.93321487 21.31948914 32.92892975 20.45980835 32.92451477 C18.70335798 32.91879982 16.94688395 32.91825018 15.19042969 32.92260742 C12.52627506 32.925764 9.86323621 32.9022849 7.19921875 32.87695312 C5.4830743 32.87467925 3.7669269 32.87397705 2.05078125 32.875 C1.26611481 32.86579025 0.48144836 32.85658051 -0.32699585 32.84709167 C-8.89989729 32.91758182 -16.0776877 35.21153959 -22.32421875 41.171875 C-28.07310658 47.81196597 -29.74333803 54.98116274 -30.75390625 63.55078125 C-31.11328125 66.23828125 -31.11328125 66.23828125 -32.11328125 68.23828125 C-43.99328125 68.23828125 -55.87328125 68.23828125 -68.11328125 68.23828125 C-68.11328125 48.82604995 -65.13640023 32.75614329 -51.3984375 18.421875 C-37.29688509 4.94705825 -19.14804269 0.15482227 0 0 Z M-33.203125 123.08984375 C-38.00759185 128.17923808 -39.78934344 132.67496537 -40.42578125 139.67578125 C-39.89599453 145.7153499 -38.49582971 150.32560822 -33.98828125 154.55078125 C-24.39469299 161.99896792 -10.6702009 162.26692153 0.91455078 161.02001953 C20.1011639 158.48290987 38.54467202 151.8385637 51.88671875 137.23828125 C56.67442092 130.57324358 59.96720347 124.18426299 60.51171875 115.92578125 C60.58648438 114.85714844 60.66125 113.78851563 60.73828125 112.6875 C60.81175781 111.47513672 60.81175781 111.47513672 60.88671875 110.23828125 C11.17257764 106.67677959 11.17257764 106.67677959 -33.203125 123.08984375 Z " fill="#1B2037" transform="translate(1286.11328125,134.76171875)"/>
<path d="M0 0 C18.89573619 16.13116115 29.31311198 38.87161996 32.14038086 63.34863281 C32.52676131 68.59902247 32.45491262 73.86348781 32.4375 79.125 C32.44136719 80.32060547 32.44523437 81.51621094 32.44921875 82.74804688 C32.44728516 84.44864258 32.44728516 84.44864258 32.4453125 86.18359375 C32.44418457 87.21669678 32.44305664 88.2497998 32.44189453 89.31420898 C32.3125 91.6875 32.3125 91.6875 31.3125 92.6875 C29.50289129 92.78391497 27.68947872 92.80937398 25.87730408 92.80775452 C24.69794785 92.80912918 23.51859161 92.81050385 22.30349731 92.81192017 C20.9979892 92.80832489 19.69248108 92.80472961 18.34741211 92.80102539 C16.96797182 92.80074352 15.58853139 92.80090125 14.20909119 92.8014679 C10.45305882 92.80175588 6.69705811 92.79585905 2.94103312 92.78889394 C-0.98010045 92.78266051 -4.90123467 92.78205661 -8.82237244 92.78086853 C-16.25261611 92.77775518 -23.68284514 92.76954175 -31.11308235 92.75951904 C-39.57001638 92.74835801 -48.0269511 92.74284748 -56.48389065 92.73782361 C-73.88510225 92.72735914 -91.28629958 92.70975963 -108.6875 92.6875 C-107.76536722 95.56251767 -106.83448417 98.43420004 -105.8984375 101.3046875 C-105.64054443 102.11188232 -105.38265137 102.91907715 -105.11694336 103.75073242 C-102.91928382 110.45274222 -100.05947165 116.11206089 -95.6875 121.6875 C-95.13964844 122.40035156 -94.59179688 123.11320313 -94.02734375 123.84765625 C-84.88422643 134.27683842 -69.99816657 139.43654545 -56.5 140.4375 C-40.44407405 141.31443737 -25.70672866 137.44095422 -13.4921875 126.76953125 C-9.28975319 122.76093616 -6.28310046 118.87870092 -3.6875 113.6875 C4.19705989 114.22434954 11.69851183 115.72516191 19.375 117.5625 C20.51388672 117.81902344 21.65277344 118.07554687 22.82617188 118.33984375 C23.90576172 118.59636719 24.98535156 118.85289062 26.09765625 119.1171875 C27.07613525 119.34647949 28.05461426 119.57577148 29.06274414 119.81201172 C29.80516357 120.10092285 30.54758301 120.38983398 31.3125 120.6875 C32.54713539 124.39140617 31.61904155 125.7413512 29.96264648 129.13305664 C29.60372314 129.83164795 29.2447998 130.53023926 28.875 131.25 C28.51027588 131.96728271 28.14555176 132.68456543 27.76977539 133.42358398 C24.61027282 139.45425145 20.90662248 144.65181564 16.3125 149.6875 C15.79558594 150.2959375 15.27867187 150.904375 14.74609375 151.53125 C0.13250111 167.64649 -23.57579619 175.56690822 -44.80688477 176.81176758 C-73.19911163 177.83631112 -97.71954761 170.48935906 -119.21875 151.4453125 C-136.54651204 135.13368465 -146.69663093 110.7528622 -147.80981445 87.0871582 C-148.58330377 59.9682955 -144.32354039 33.11281028 -125.3125 12.375 C-123.46812545 10.4445252 -121.58549614 8.56675711 -119.6875 6.6875 C-118.90761719 5.88570312 -118.12773438 5.08390625 -117.32421875 4.2578125 C-86.56672367 -25.620897 -33.04021988 -26.13222343 0 0 Z M-95.6875 33.6875 C-101.03269959 40.68152124 -107.6875 50.62964337 -107.6875 59.6875 C-74.6875 59.6875 -41.6875 59.6875 -7.6875 59.6875 C-9.36857538 46.23889698 -14.89140064 34.5738281 -25.76953125 25.9609375 C-47.91280169 11.25888829 -77.50797247 13.82085723 -95.6875 33.6875 Z " fill="#1B2037" transform="translate(1922.6875,153.3125)"/>
<path d="M0 0 C12.86656661 11.17034301 24.40393993 26.04055171 27.48828125 43.17578125 C20.48369136 45.61566455 13.4334304 47.56892447 6.23828125 49.36328125 C5.17609375 49.63591797 4.11390625 49.90855469 3.01953125 50.18945312 C1.48039062 50.57520508 1.48039062 50.57520508 -0.08984375 50.96875 C-1.0118457 51.20102295 -1.93384766 51.4332959 -2.88378906 51.67260742 C-5.49529896 52.17263733 -7.86014282 52.26834078 -10.51171875 52.17578125 C-10.84042969 51.35787109 -10.84042969 51.35787109 -11.17578125 50.5234375 C-13.67301868 44.58488507 -16.63397844 39.32397926 -20.51171875 34.17578125 C-20.96675781 33.56863281 -21.42179687 32.96148437 -21.890625 32.3359375 C-30.24697609 22.71413376 -45.3779301 17.32379586 -57.69921875 16.42578125 C-72.86874958 15.60378697 -86.77744951 19.3243202 -98.51171875 29.17578125 C-110.86933019 40.33618567 -116.73776348 55.80949938 -117.82421875 72.234375 C-118.57134949 90.17796505 -113.93527339 106.77623288 -102.13671875 120.61328125 C-91.96751807 131.15785511 -79.82457075 136.23985665 -65.26513672 136.71850586 C-55.72326125 136.78406073 -47.3263054 136.08195376 -38.51171875 132.17578125 C-37.70992187 131.82515625 -36.908125 131.47453125 -36.08203125 131.11328125 C-24.99387493 125.58838675 -16.05729653 116.18419452 -11.63671875 104.61328125 C-11.07984375 102.91171875 -11.07984375 102.91171875 -10.51171875 101.17578125 C-2.4652136 101.82300014 5.16409891 103.60678523 12.98828125 105.55078125 C14.28771032 105.85828468 15.58718917 106.16557787 16.88671875 106.47265625 C18.10617187 106.77429688 19.325625 107.0759375 20.58203125 107.38671875 C22.24782227 107.79349854 22.24782227 107.79349854 23.94726562 108.20849609 C24.78580078 108.5277002 25.62433594 108.8469043 26.48828125 109.17578125 C27.80431402 113.12387957 26.55743694 115.44020456 25.05078125 119.11328125 C24.77709717 119.78206299 24.50341309 120.45084473 24.22143555 121.13989258 C14.62945597 143.66054204 -4.08239397 159.26679377 -26.34619141 168.36669922 C-52.00646601 177.95386382 -80.69096617 176.11192278 -105.51171875 165.17578125 C-113.84501834 161.33947965 -120.66395303 156.24872333 -127.51171875 150.17578125 C-128.21039062 149.5725 -128.9090625 148.96921875 -129.62890625 148.34765625 C-147.40148393 131.93121903 -155.79777435 107.25078283 -156.890625 83.60546875 C-157.6425958 55.32735633 -151.73219016 28.58215647 -131.78149414 7.42211914 C-97.63211697 -27.56685343 -38.02579171 -31.45527623 0 0 Z " fill="#1B2037" transform="translate(1104.51171875,155.82421875)"/>
<path d="M0 0 C11.38428534 -0.87462472 22.75972111 -1.42799706 34.1796875 -1.171875 C35.13618698 -1.17829514 36.09268646 -1.18471527 37.07817078 -1.19132996 C43.77632282 -0.94382361 47.03599257 1.00305221 51.64375305 5.82695007 C54.03113628 9.02522673 55.3348759 12.42248011 56.74853516 16.12939453 C59.05187738 21.41279248 62.61314957 25.86776587 66 30.5 C67.35022321 32.4286818 68.69532284 34.3609611 70.03515625 36.296875 C70.69273926 37.24240234 71.35032227 38.18792969 72.02783203 39.16210938 C75.17187266 43.68628965 78.31136722 48.21342348 81.4375 52.75 C81.98728516 53.54212891 82.53707031 54.33425781 83.10351562 55.15039062 C83.60431641 55.87935547 84.10511719 56.60832031 84.62109375 57.359375 C85.0586499 57.99327148 85.49620605 58.62716797 85.94702148 59.28027344 C87 61 87 61 88 64 C88.66 64 89.32 64 90 64 C90.22429687 63.32582031 90.44859375 62.65164062 90.6796875 61.95703125 C92.37782988 58.15379522 94.67587646 55.04124755 97.125 51.6875 C103.03090062 43.4738623 108.65323565 35.08895419 114.21533203 26.6394043 C118.0209541 20.88174809 121.94242001 15.23946563 126.03417969 9.68115234 C127.94601564 7.20506875 127.94601564 7.20506875 128.99565125 5.14201355 C130.6689821 2.24409257 131.82346902 0.33281047 135.13998413 -0.60534668 C137.82517837 -0.81144777 140.42216779 -0.78739804 143.11328125 -0.68359375 C144.08283249 -0.67368912 145.05238373 -0.66378448 146.05131531 -0.65357971 C149.1399332 -0.61447659 152.22496157 -0.52666298 155.3125 -0.4375 C157.40945378 -0.40238084 159.50646343 -0.37044289 161.60351562 -0.34179688 C166.73705449 -0.2647276 171.86791931 -0.14397292 177 0 C175.40801049 4.19449248 173.33763362 7.59148535 170.6875 11.1875 C170.03587891 12.0856543 170.03587891 12.0856543 169.37109375 13.00195312 C168.42316999 14.30801101 167.47304438 15.61247297 166.52099609 16.91552734 C164.38985412 19.83618387 162.2750439 22.76852926 160.15942383 25.70043945 C159.04667275 27.24244363 157.93322051 28.78394206 156.8190918 30.32495117 C153.53118124 34.87280103 150.25678777 39.42981913 147 44 C143.18821173 49.34900124 139.34887275 54.67762587 135.5 60 C129.97096235 67.64617941 124.47623155 75.31592158 119 83 C118.51789063 83.58475098 118.03578125 84.16950195 117.5390625 84.77197266 C116.1821988 86.47126108 114.99632747 88.06698641 114 90 C114.65810953 94.79042516 118.77702749 99.0470435 121.625 102.875 C126.87523519 110.03414131 132.00762185 117.26410348 137.0625 124.5625 C143.18709648 133.39636057 149.35248927 142.1990915 155.56445312 150.97167969 C158.53926111 155.17486077 161.50720405 159.38289899 164.47460938 163.59130859 C167.11648747 167.33687751 169.76485168 171.07765593 172.421875 174.8125 C172.97875 175.59689453 173.535625 176.38128906 174.109375 177.18945312 C175.18559542 178.70513021 176.26365914 180.21950048 177.34375 181.73242188 C181 186.8875378 181 186.8875378 181 188 C143.7858084 193.03116356 143.7858084 193.03116356 132.8739624 186.78253174 C125.15879205 180.60850292 120.8744595 170.95095038 116.66799927 162.23403931 C112.52191919 153.68341003 107.17459402 146.07779382 101.71408081 138.32562256 C99.19150023 134.73303685 96.72007538 131.10673673 94.2578125 127.47265625 C93.82473282 126.84395126 93.39165314 126.21524628 92.94544983 125.56748962 C90 121.22856797 90 121.22856797 90 119 C86.33934127 122.3394 83.74098644 126.18558393 81.0625 130.3125 C80.00392928 131.92144553 78.94391416 133.52944125 77.8828125 135.13671875 C77.28114258 136.04856934 76.67947266 136.96041992 76.05957031 137.89990234 C72.3440781 143.49251971 68.57414741 149.04833305 64.80636597 154.60580444 C63.04829615 157.19910931 61.2910327 159.7929469 59.53890991 162.39027405 C58.67620542 163.65734773 57.80318282 164.9174566 56.92007446 166.1703949 C54.57870137 169.51608632 52.53553514 172.82903832 50.71411133 176.48730469 C45.20987463 186.92374095 45.20987463 186.92374095 39.60061646 188.80450439 C32.67869294 189.97885266 25.78005546 189.46062891 18.8125 189 C16.69493109 188.91963316 14.57706842 188.8466482 12.45898438 188.78125 C7.29866859 188.60594389 2.15259689 188.33068194 -3 188 C-1.10723541 184.07395061 1.26603018 180.5705137 3.75 177 C4.47038452 175.95863892 4.47038452 175.95863892 5.20532227 174.89624023 C6.79976961 172.59484252 8.39909488 170.29690982 10 168 C10.83797119 166.79754639 10.83797119 166.79754639 11.69287109 165.57080078 C19.26718275 154.71207207 26.88947918 143.88729314 34.53222656 133.07666016 C36.52199771 130.26145833 38.50996164 127.44498283 40.49780273 124.62841797 C41.49197901 123.2197996 42.48628053 121.81126962 43.48071289 120.40283203 C46.09446159 116.70084547 48.70654919 112.99770011 51.31640625 109.29296875 C51.85974609 108.52210938 52.40308594 107.75125 52.96289062 106.95703125 C54.00244055 105.48211426 55.04152903 104.00687188 56.08007812 102.53125 C56.54994141 101.86480469 57.01980469 101.19835937 57.50390625 100.51171875 C57.93719238 99.89087402 58.37047852 99.2700293 58.81689453 98.63037109 C60 97 60 97 61.90234375 94.83203125 C63.18335747 93.03632764 63.18335747 93.03632764 63.05078125 90.765625 C61.4622184 86.58457483 58.86436646 83.30592865 56.1875 79.75 C54.99258744 78.13087372 53.79859745 76.51106624 52.60546875 74.890625 C52.00009277 74.07271484 51.3947168 73.25480469 50.77099609 72.41210938 C48.12756207 68.81173329 45.56249801 65.1581957 43 61.5 C37.2869199 53.37521222 31.47763322 45.32208505 25.64990234 37.27929688 C23.98915323 34.98501548 22.3318875 32.68825963 20.67578125 30.390625 C19.8552124 29.25258423 19.8552124 29.25258423 19.01806641 28.09155273 C17.93273694 26.58612174 16.84776905 25.08043 15.76318359 23.57446289 C13.11219313 19.8998347 10.44378056 16.24019519 7.73828125 12.60546875 C7.22410645 11.91283936 6.70993164 11.22020996 6.18017578 10.5065918 C5.20744809 9.19896194 4.23074543 7.89427674 3.24951172 6.59301758 C0 2.22149083 0 2.22149083 0 0 Z " fill="#1B2037" transform="translate(776,138)"/>
<path d="M0 0 C17.48761185 11.03003041 34.74008654 22.43107394 52 33.8125 C52.94842773 34.43761475 53.89685547 35.06272949 54.87402344 35.70678711 C68.32451665 44.573311 81.74867824 53.47811379 95.14141846 62.43161011 C104.24605661 68.517867 113.37172531 74.57064934 122.5234375 80.5859375 C123.50830139 81.23355042 124.49316528 81.88116333 125.50787354 82.54840088 C130.32175323 85.71319333 135.1377168 88.87473995 139.95703125 92.03125 C174.41765511 114.64249984 200.48328037 139.10110142 209.54345703 180.74658203 C215.95787373 212.4070452 210.68167756 244.84591843 195 273 C194.46874512 273.96389648 194.46874512 273.96389648 193.92675781 274.94726562 C191.6823591 279.00389908 189.39290433 283.02858316 187 287 C186.45869446 288.03959869 185.91738892 289.07919739 185.35968018 290.15029907 C183 293 183 293 179.55780029 293.7215271 C178.16715713 293.73885856 176.77586077 293.7230938 175.38574219 293.68115234 C174.24369827 293.68246658 174.24369827 293.68246658 173.07858276 293.68380737 C170.56696239 293.67963362 168.05802744 293.63299784 165.546875 293.5859375 C163.80382751 293.57474445 162.06076112 293.56620478 160.31768799 293.56021118 C155.73376184 293.53732103 151.15097959 293.47839713 146.56750488 293.4119873 C141.88891068 293.35056821 137.2101313 293.32319703 132.53125 293.29296875 C123.35366455 293.22865333 114.17692746 293.12627223 105 293 C109.13007169 284.57708966 109.13007169 284.57708966 111.48828125 280.90625 C111.93913086 280.19911865 112.38998047 279.4919873 112.85449219 278.76342773 C113.33563477 278.01649658 113.81677734 277.26956543 114.3125 276.5 C115.38729153 274.81416712 116.46148205 273.12795096 117.53515625 271.44140625 C118.38231201 270.11326904 118.38231201 270.11326904 119.24658203 268.75830078 C122.27159772 263.99965037 125.2617992 259.21932697 128.25 254.4375 C128.87181152 253.44258545 129.49362305 252.4476709 130.13427734 251.42260742 C136.83840548 240.67977585 143.47738555 229.89679149 150.09277344 219.09912109 C151.43723237 216.91446138 152.78857099 214.73541081 154.14941406 212.56103516 C154.50737564 211.98645065 154.86533722 211.41186615 155.23414612 210.81987 C156.23205621 209.21882189 157.23346896 207.61995847 158.23510742 206.02124023 C166.59877878 191.70384736 168.93166412 175.08408048 165 159 C160.05227954 141.85187649 149.53699536 131.21001129 134.8125 121.92578125 C133.03345405 120.78659466 131.25482122 119.64676271 129.4765625 118.50634766 C128.56938477 117.9269342 127.66220703 117.34752075 126.72753906 116.75054932 C122.3575616 113.94587416 118.02235841 111.08901213 113.6875 108.23046875 C112.39489258 107.37921921 112.39489258 107.37921921 111.07617188 106.51077271 C108.3835571 104.73719281 105.69171084 102.96245142 103 101.1875 C102.05157227 100.56238525 101.10314453 99.93727051 100.12597656 99.29321289 C90.29977189 92.8158089 80.47959929 86.32965544 70.6875 79.80078125 C69.59559357 79.07444489 69.59559357 79.07444489 68.48162842 78.33343506 C64.88504325 75.93815984 61.30173649 73.52631799 57.73925781 71.08056641 C50.35401917 66.04044408 42.91121076 61.31981577 35.09820557 56.96360779 C1.35029651 38.09505572 1.35029651 38.09505572 -1.92578125 28.49316406 C-4.0994473 19.00006739 -2.51947705 9.27008985 0 0 Z " fill="#1B2037" transform="translate(0,99)"/>
<path d="M0 0 C1.1154077 0.9439118 2.22908512 1.88986847 3.34204102 2.83666992 C3.96240738 3.36322678 4.58277374 3.88978363 5.22193909 4.43229675 C7.64720539 6.57063624 9.78490818 8.90173671 11.9375 11.3125 C12.88816879 12.36692712 13.84006802 13.42024573 14.79296875 14.47265625 C15.3039209 15.03742676 15.81487305 15.60219727 16.34130859 16.18408203 C19.4390184 19.57542226 22.5972 22.90995749 25.75 26.25 C27.12894119 27.71220664 28.50784722 29.17444643 29.88671875 30.63671875 C30.57169434 31.36294434 31.25666992 32.08916992 31.96240234 32.83740234 C35.16845102 36.2401317 38.36591743 39.65087994 41.5625 43.0625 C42.17633545 43.71758545 42.7901709 44.3726709 43.42260742 45.04760742 C44.66068003 46.3689446 45.8987172 47.69031499 47.13671875 49.01171875 C49.01761964 51.01880167 50.89931032 53.0251411 52.78125 55.03125 C55.90257435 58.35857049 59.02257912 61.6871232 62.14160156 65.01660156 C63.39060098 66.34961145 64.63995561 67.68228859 65.88964844 69.01464844 C69.93840375 73.33206143 73.9756884 77.65979587 78 82 C78.7940625 82.85335937 79.588125 83.70671875 80.40625 84.5859375 C85.11063735 89.74266978 89.19072288 95.1515882 93 101 C93.57621094 101.86882812 94.15242188 102.73765625 94.74609375 103.6328125 C110.18233888 128.31705305 114.08439731 158.81489912 107.83666992 187.05859375 C104.54386153 200.56869076 99.49737552 213.57341708 93.08491802 225.91086578 C92.3667944 227.29369526 91.67420034 228.69011097 91.0089922 230.09915924 C88.1310921 235.55651718 88.1310921 235.55651718 85.15680504 236.72268677 C82.88343961 236.98670714 80.7333777 236.99090031 78.44604492 236.90820312 C77.59675415 236.90937134 76.74746338 236.91053955 75.87243652 236.91174316 C73.07343269 236.90618222 70.27872489 236.84403255 67.48046875 236.78125 C65.53707711 236.76632419 63.59365531 236.75493877 61.65022278 236.74694824 C56.54155988 236.71644073 51.43472436 236.63788998 46.32678223 236.54931641 C41.11198651 236.46739482 35.8968947 236.4309233 30.68164062 236.390625 C20.45362533 236.30489416 10.22696477 236.16840403 0 236 C1.84756626 231.98800398 4.49579142 229.24294311 7.625 226.1875 C8.12128906 225.69185547 8.61757812 225.19621094 9.12890625 224.68554688 C11.89039292 221.95568028 14.72640695 219.35060775 17.67138672 216.81982422 C24.72751596 210.66379749 31.32131835 204.01959857 37.97216797 197.43286133 C39.65113557 195.77546053 41.33633461 194.12434755 43.02783203 192.47973633 C58.48700518 177.44354543 70.64775639 163.17652522 71.46850586 140.55126953 C71.65027586 125.46576874 67.89950616 111.75041759 57.5703125 100.30859375 C55.87420262 98.6202169 54.15690772 96.952825 52.41796875 95.30859375 C50.24009297 93.22923255 48.26640207 91.1001022 46.3125 88.8125 C43.59649349 85.63852518 40.72501863 82.70319202 37.74609375 79.77734375 C35.93522357 77.93406426 34.24678646 76.02177201 32.5625 74.0625 C30.14382221 71.25423653 27.64100317 68.60029407 25 66 C21.75100405 62.8009886 18.75493465 59.46075537 15.78515625 56.00390625 C13.34091734 53.26015447 10.73164613 50.70478284 8.08984375 48.15234375 C7.40019531 47.44207031 6.71054688 46.73179687 6 46 C5.50632431 45.53223145 5.01264862 45.06446289 4.50401306 44.58251953 C0.62175411 40.59553705 -0.68300935 37.82256708 -0.67977905 32.26075745 C-0.64881134 31.44380905 -0.61784363 30.62686066 -0.5859375 29.78515625 C-0.57744781 28.92941513 -0.56895813 28.07367401 -0.56021118 27.19200134 C-0.52684354 24.48084162 -0.45160286 21.77274778 -0.375 19.0625 C-0.34487857 17.215538 -0.31750658 15.36852899 -0.29296875 13.52148438 C-0.22710774 9.01315648 -0.12370805 4.50709648 0 0 Z " fill="#1B2037" transform="translate(0,156)"/>
<path d="M0 0 C12.21 0 24.42 0 37 0 C37 87.12 37 174.24 37 264 C24.79 264 12.58 264 0 264 C0 176.88 0 89.76 0 0 Z " fill="#1B2037" transform="translate(1153,62)"/>
<path d="M0 0 C1.56113525 0.00374634 1.56113525 0.00374634 3.15380859 0.00756836 C4.45656738 0.01667236 5.75932617 0.02577637 7.1015625 0.03515625 C11.2678125 0.05578125 15.4340625 0.07640625 19.7265625 0.09765625 C19.7265625 12.96765625 19.7265625 25.83765625 19.7265625 39.09765625 C14.91964844 39.13632813 14.91964844 39.13632813 10.015625 39.17578125 C6.88451656 39.21428135 3.75356838 39.25941596 0.62255859 39.30517578 C-1.54012295 39.33326255 -3.7029048 39.35453773 -5.86572266 39.36865234 C-8.98912457 39.39025263 -12.11133593 39.43699018 -15.234375 39.48828125 C-16.66624649 39.49012421 -16.66624649 39.49012421 -18.12704468 39.49200439 C-27.1114447 39.68452795 -35.11942547 42.18633142 -41.8046875 48.3828125 C-46.2208274 53.53889074 -48.38631066 59.67615144 -48.43165588 66.39372253 C-48.44633911 68.04066856 -48.44633911 68.04066856 -48.46131897 69.72088623 C-48.46707443 70.92569641 -48.4728299 72.13050659 -48.47875977 73.37182617 C-48.48865936 74.64022842 -48.49855896 75.90863068 -48.50875854 77.21546936 C-48.5358009 80.69449943 -48.55681407 84.17354306 -48.57676053 87.65262008 C-48.59862421 91.28815797 -48.62601103 94.92365411 -48.65281677 98.55915833 C-48.70273849 105.44389962 -48.74767925 112.32866409 -48.79083914 119.21345073 C-48.84021596 127.05136726 -48.89513244 134.88924189 -48.95051873 142.7271179 C-49.06433079 158.85059346 -49.1704402 174.97410743 -49.2734375 191.09765625 C-61.8134375 191.09765625 -74.3534375 191.09765625 -87.2734375 191.09765625 C-87.2734375 129.05765625 -87.2734375 67.01765625 -87.2734375 3.09765625 C-74.7334375 3.09765625 -62.1934375 3.09765625 -49.2734375 3.09765625 C-48.7784375 12.00765625 -48.7784375 12.00765625 -48.2734375 21.09765625 C-47.0771875 19.94265625 -45.8809375 18.78765625 -44.6484375 17.59765625 C-32.28018285 6.66396405 -16.63776044 -0.08236515 0 0 Z " fill="#1B2037" transform="translate(2064.2734375,134.90234375)"/>
<path d="M0 0 C12.21 0 24.42 0 37 0 C37 62.04 37 124.08 37 188 C24.79 188 12.58 188 0 188 C0 125.96 0 63.92 0 0 Z " fill="#1B2037" transform="translate(1411,138)"/>
<path d="M0 0 C6.31130257 3.65391201 10.22938495 9.12706208 12.5 16 C13.57886346 24.66497703 12.66396862 31.84292068 7.5 39 C1.97659238 45.05184297 -3.71538539 47.38156081 -11.81640625 48.01953125 C-19.51552969 47.96349687 -25.30513849 45.16841284 -30.80859375 39.8984375 C-35.41585617 34.72723765 -37.13170032 29.68299684 -37.8125 22.875 C-37.17708751 14.99588515 -34.96227415 8.8456263 -29.0625 3.4375 C-20.87421632 -3.41217731 -9.75874664 -4.39809977 0 0 Z " fill="#1B2037" transform="translate(1442.5,64)"/>
</svg>
